Coordinates
version=1
nRows=24
nColumns=24
inDegrees=yes

Units are S.I. units (second, meters, Newtons, ...)
Angles are in degrees.

endheader
time	pelvis_tilt	pelvis_list	pelvis_rotation	pelvis_tx	pelvis_ty	pelvis_tz	hip_flexion_r	hip_adduction_r	hip_rotation_r	knee_angle_r	ankle_angle_r	subtalar_angle_r	mtp_angle_r	hip_flexion_l	hip_adduction_l	hip_rotation_l	knee_angle_l	ankle_angle_l	subtalar_angle_l	mtp_angle_l	lumbar_extension	lumbar_bending	lumbar_rotation
      3.74500000	     -5.45974049	      3.83143179	      4.89012272	     -0.25682705	     -0.03312369	     -0.16463891	     35.42090975	     -1.97197309	     -1.88214912	    -17.76580312	      0.32147635	      8.83472210	     11.49901702	     -8.37947685	      7.83001155	     -6.55190566	    -24.10222377	     11.35915239	     25.87400140	     -1.03672239	      3.47126857	     -6.21848252	     -9.98428054
      3.75000000	     -5.53058830	      3.53916278	      4.77409759	     -0.24917710	     -0.03337408	     -0.16395745	     35.35216353	     -1.51389167	     -1.77427408	    -18.31383782	     -0.65111409	      8.34220368	     11.76997657	     -8.23242725	      7.23960659	     -7.10650795	    -25.01388980	     10.12468173	     26.34716068	      0.72244614	      3.77319534	     -5.86649857	     -9.71279589
      3.75500000	     -5.60697001	      3.18949915	      4.70784563	     -0.24156642	     -0.03349911	     -0.16329127	     35.27277936	     -1.01002865	     -1.64838848	    -18.85013803	     -1.63695279	      7.78987679	     11.66095045	     -8.03558546	      6.56448671	     -7.60259448	    -25.86706629	      8.40370525	     26.70261490	      4.05466327	      4.06989488	     -5.46101327	     -9.49013306
      3.76000000	     -5.66724824	      2.85071642	      4.81489198	     -0.23413571	     -0.03341873	     -0.16292284	     35.17882014	     -0.64858532	     -1.76090472	    -19.42662431	     -2.42958628	      7.57582319	     11.43447124	     -7.80508314	      5.91530578	     -7.74383309	    -26.64710117	      6.15289115	     26.68647639	      8.66394150	      4.29670041	     -5.07497018	     -9.50786719
      3.76500000	     -5.78409601	      2.46630116	      4.65083584	     -0.22648353	     -0.03347998	     -0.16212377	     35.15949313	     -0.01175401	     -1.33965181	    -19.99185699	     -3.40459269	      6.95442900	     10.98661397	     -7.45902083	      5.18711612	     -8.30375419	    -27.67883114	      4.38135375	     27.02500388	     10.92781740	      4.65597854	     -4.62159817	     -9.16250677
      3.77000000	     -5.88130932	      2.06721358	      4.66243971	     -0.21899974	     -0.03341074	     -0.16154026	     35.12497240	      0.50874686	     -1.21104665	    -20.60755279	     -4.13138354	      6.71847455	     10.55231818	     -7.06180515	      4.40788367	     -8.69356764	    -28.63932574	      2.00413091	     27.16843476	     15.15808710	      4.94270704	     -4.17775147	     -9.06673549
      3.77500000	     -6.00651493	      1.69076645	      4.48950213	     -0.21142335	     -0.03342423	     -0.16073638	     35.12603189	      1.17209890	     -0.63945099	    -21.22364470	     -4.97025590	      6.10674336	     10.03236484	     -6.60770596	      3.67855018	     -9.16763194	    -29.73199435	     -0.19345621	     27.24545410	     17.66261811	      5.28986283	     -3.72818907	     -8.71647714
      3.78000000	     -6.15455667	      1.28813690	      4.39874965	     -0.20386914	     -0.03344152	     -0.16001732	     35.14149355	      1.80381801	     -0.21634384	    -21.85126425	     -5.60985772	      5.66133115	      9.54992917	     -6.06173415	      2.89588593	     -9.56512814	    -30.85269419	     -2.66976398	     27.22668503	     20.72826797	      5.65341293	     -3.26879684	     -8.48633335
      3.78500000	     -6.26196649	      0.88830172	      4.28717305	     -0.19637335	     -0.03344894	     -0.15928236	     35.10543225	      2.45508858	      0.25213847	    -22.46730236	     -6.16747032	      5.19968837	      9.15681398	     -5.50330822	      2.11586374	     -9.91937763	    -32.05276191	     -5.20026149	     27.09301736	     23.23529762	      5.96005758	     -2.80830041	     -8.25489583
      3.79000000	     -6.39719391	      0.46011993	      4.17011316	     -0.18887016	     -0.03352591	     -0.15852325	     35.07660104	      3.14476751	      0.71576366	    -23.04432494	     -6.65289787	      4.66699719	      8.83960813	     -4.85150443	      1.30523222	    -10.22580858	    -33.35411462	     -7.75229605	     26.85301283	     25.13797147	      6.29850187	     -2.32066855	     -8.02104099
      3.79500000	     -6.52827012	      0.02603277	      4.06059154	     -0.18140685	     -0.03361814	     -0.15777292	     35.01342648	      3.84656733	      1.18271065	    -23.56912905	     -7.09293844	      3.99283015	      8.58727576	     -4.14552021	      0.50997319	    -10.42324677	    -34.72832704	    -10.35444513	     26.35609265	     26.39566208	      6.63024770	     -1.82928819	     -7.78930042
      3.80000000	     -6.60956127	     -0.35585246	      3.95722437	     -0.17410465	     -0.03368871	     -0.15704984	     34.88360111	      4.50005829	      1.65601955	    -24.07177404	     -7.41295762	      3.27308618	      8.39728827	     -3.41690160	     -0.19671238	    -10.49641553	    -36.22571289	    -12.89147370	     25.61787025	     26.41453043	      6.86767206	     -1.39491217	     -7.59427567
      3.80500000	     -6.69111516	     -0.78028804	      3.79064870	     -0.16680038	     -0.03381898	     -0.15623328	     34.72733263	      5.23080813	      2.11203634	    -24.51648197	     -7.67249830	      2.55112376	      8.30068037	     -2.65551714	     -0.95416022	    -10.65120862	    -37.73361297	    -15.52135867	     24.68234253	     26.41986927	      7.11518622	     -0.90646370	     -7.33210341
      3.81000000	     -6.73255327	     -1.22153822	      3.61257582	     -0.15961445	     -0.03391341	     -0.15546819	     34.50259205	      5.96897469	      2.49594646	    -24.90476881	     -7.84933637	      1.90262790	      8.26458423	     -1.88442420	     -1.70051197	    -10.74267304	    -39.28028630	    -18.16360968	     23.46234143	     26.01823961	      7.29250414	     -0.38206481	     -7.05706287
      3.81500000	     -6.74604729	     -1.72096885	      3.43396694	     -0.15240436	     -0.03404856	     -0.15464095	     34.20845760	      6.76463776	      2.79290632	    -25.23312076	     -7.83812756	      1.30846516	      8.27266438	     -1.09935785	     -2.53209881	    -10.90179084	    -40.88246310	    -20.73963007	     22.01157548	     25.30713829	      7.45409458	      0.19081465	     -6.79890546
      3.82000000	     -6.83680793	     -2.07713220	      3.18252981	     -0.14540950	     -0.03419833	     -0.15363578	     33.98818670	      7.49550950	      3.31981065	    -25.53344968	     -8.00798588	      0.36161709	      8.33592858	     -0.20171914	     -3.15787098	    -10.97070661	    -42.46892688	    -23.33706601	     20.34219036	     23.93134926	      7.65303238	      0.59941369	     -6.43493521
      3.82500000	     -6.90808709	     -2.57310949	      2.94808626	     -0.13848360	     -0.03439823	     -0.15276007	     33.70950625	      8.30561282	      3.64699224	    -25.70776185	     -8.20132199	     -0.42110213	      8.88738511	      0.79563038	     -3.95619884	    -11.09367290	    -44.38180615	    -25.11816372	     18.73615212	     20.37539608	      7.82889112	      1.17194779	     -6.12963507
      3.83000000	     -6.97695438	     -3.01057834	      2.62598875	     -0.13160502	     -0.03457535	     -0.15168658	     33.40860851	      9.13596686	      4.12076017	    -25.91188223	     -8.16735655	     -1.16492626	      8.85501247	      1.76108792	     -4.68941648	    -11.27793211	    -46.15740709	    -26.99995231	     16.87089093	     17.38724743	      7.98922656	      1.68444624	     -5.69045540
      3.83500000	     -7.00002899	     -3.46363960	      2.35693276	     -0.12483946	     -0.03464575	     -0.15067367	     33.02254453	      9.94144317	      4.50260002	    -26.05051227	     -8.07948806	     -1.86171156	      8.76428418	      2.73854749	     -5.43719676	    -11.39872075	    -47.99597281	    -28.51465992	     14.93706832	     13.68931050	      8.08266490	      2.20060970	     -5.33554596
      3.84000000	     -7.02811247	     -3.91661968	      2.08361260	     -0.11815141	     -0.03467690	     -0.14962530	     32.61714824	     10.74347131	      4.85446684	    -26.14985051	     -7.95452943	     -2.53121393	      8.55827797	      3.75250045	     -6.18797006	    -11.51178692	    -49.84791927	    -29.67613495	     12.99357848	      9.68161808	      8.16750571	      2.70771076	     -4.98070566
      3.84500000	     -7.05687065	     -4.35487269	      1.80646816	     -0.11154396	     -0.03465648	     -0.14856372	     32.18412608	     11.52680591	      5.22097826	    -26.21060037	     -7.78528034	     -3.15470495	      8.26959066	      4.79133735	     -6.91823813	    -11.60959461	    -51.69426914	    -30.45795425	     11.05012809	      5.49399738	      8.24199291	      3.19458051	     -4.62553555
      3.85000000	     -7.08857719	     -4.78016871	      1.54057203	     -0.10502497	     -0.03457149	     -0.14751644	     31.73460520	     12.27350047	      5.53064101	    -26.23550678	     -7.58196176	     -3.69247498	      7.94112368	      5.86280425	     -7.62696894	    -11.67614812	    -53.53371356	    -30.81828926	      9.17999958	      1.16312045	      8.30322145	      3.66253284	     -4.28291309
      3.85500000	     -7.12085079	     -5.17564204	      1.28590084	     -0.09858347	     -0.03440898	     -0.14649971	     31.26189900	     12.96852685	      5.82789835	    -26.22410498	     -7.34557152	     -4.15681338	      7.62371365	      6.94982457	     -8.28337442	    -11.70675698	    -55.32099854	    -30.82369722	      7.36805576	     -2.99729098	      8.35303461	      4.09426665	     -3.96514801
      3.86000000	     -7.15176891	     -5.55335409	      1.05627960	     -0.09221662	     -0.03415895	     -0.14555186	     30.76539929	     13.60362859	      6.04446607	    -26.16320016	     -7.08383484	     -4.50297046	      7.36782027	      8.06129839	     -8.89505038	    -11.67960394	    -57.06331785	    -30.46250494	      5.69354381	     -7.01475448	      8.39122418	      4.50620216	     -3.65487445
